<svg id="Capa_1" enable-background="new 0 0 512 512" height="512" viewBox="0 0 512 512" width="512" xmlns="http://www.w3.org/2000/svg"><g><g><path d="m452.48 123.7c-4.142 0-7.5 3.357-7.5 7.5v207.2h-60.26v-2.6c0-9.704-7.896-17.6-17.6-17.6h-46.04c-4.142 0-7.5 3.357-7.5 7.5s3.358 7.5 7.5 7.5h46.04c1.434 0 2.6 1.166 2.6 2.6v20.21c0 1.434-1.167 2.601-2.6 2.601h-222.24c-1.434 0-2.6-1.167-2.6-2.601v-20.21c0-1.434 1.167-2.6 2.6-2.6h141c4.142 0 7.5-3.357 7.5-7.5s-3.358-7.5-7.5-7.5h-141c-9.705 0-17.6 7.896-17.6 17.6v2.601h-60.26v-64.801c0-4.143-3.358-7.5-7.5-7.5s-7.5 3.357-7.5 7.5v72.3c0 4.143 3.358 7.5 7.5 7.5h67.76v2.609c0 9.705 7.896 17.601 17.6 17.601h19.976l-28.31 129.285c-.486 2.219.06 4.537 1.483 6.307 1.424 1.769 3.572 2.798 5.843 2.798h34.345c3.524 0 6.573-2.453 7.326-5.896l29.014-132.494h16.77v130.89c0 4.143 3.358 7.5 7.5 7.5h34.346c4.142 0 7.5-3.357 7.5-7.5v-130.89h16.77l29.014 132.494c.753 3.442 3.802 5.896 7.326 5.896h34.345c2.271 0 4.419-1.029 5.843-2.798 1.423-1.77 1.969-4.088 1.483-6.307l-28.31-129.285h19.976c9.705 0 17.6-7.896 17.6-17.601v-2.609h67.76c4.142 0 7.5-3.357 7.5-7.5v-214.7c0-4.142-3.358-7.5-7.5-7.5zm-280.298 373.3h-18.99l27.019-123.39h18.99zm93.491 0h-19.346v-123.39h19.346zm93.135 0h-18.99l-27.019-123.39h18.99z"/><path d="m452.48 60.61h-108.167v-2.603c0-9.705-7.896-17.602-17.602-17.602h-43.008v-32.905c0-4.143-3.358-7.5-7.5-7.5h-40.406c-4.142 0-7.5 3.357-7.5 7.5v32.906h-43.008c-9.706 0-17.602 7.896-17.602 17.602v2.603h-108.167c-4.142 0-7.5 3.357-7.5 7.5v170.289c0 4.143 3.358 7.5 7.5 7.5s7.5-3.357 7.5-7.5v-162.79h100.667v2.601c0 9.706 7.896 17.603 17.602 17.603h141.423c9.706 0 17.602-7.896 17.602-17.603v-2.601h100.666v20.39c0 4.143 3.358 7.5 7.5 7.5s7.5-3.357 7.5-7.5v-27.89c0-4.142-3.358-7.5-7.5-7.5zm-209.183-45.61h25.406v25.406h-25.406zm86.016 63.211c0 1.435-1.167 2.603-2.602 2.603h-141.422c-1.435 0-2.602-1.168-2.602-2.603v-20.203c0-1.435 1.167-2.602 2.602-2.602h141.423c1.435 0 2.602 1.167 2.602 2.602v20.203z"/></g></g></svg>